<?xml version="1.0" encoding="utf-8"?>
<!-- Generator: Adobe Illustrator 22.1.0, SVG Export Plug-In . SVG Version: 6.00 Build 0)  -->
<svg version="1.1" id="Layer_1" xmlns="http://www.w3.org/2000/svg" xmlns:xlink="http://www.w3.org/1999/xlink" x="0px" y="0px"
	 viewBox="0 0 612 612" style="enable-background:new 0 0 612 612;" xml:space="preserve">
<style type="text/css">
	.st0{fill:#231F20;}
</style>
<path class="st0" d="M533.5,510.8L283.8,171.6c16.8-36.5,13.9-80.9-11.7-115.6c-25.5-34.7-67-50.7-106.9-45.5l49.1,66.6
	c1.5,2,2.7,4.1,3.9,6.2l16.3,22.6l-25.8,57.8l-62.8,6.6l-20-27.6c-0.1-0.1-0.1-0.2-0.2-0.3L76.5,75.8
	c-16.8,36.5-13.9,80.9,11.7,115.6s67,50.7,106.9,45.5L444.9,576c17.9,24.4,52.6,29.6,76.9,11.7l0,0
	C546.2,569.8,551.5,535.1,533.5,510.8z M502.2,561c-11.1,8.2-26.8,5.8-35-5.3c-8.2-11.1-5.8-26.8,5.3-35c11.1-8.2,26.8-5.8,35,5.3
	C515.7,537.1,513.3,552.8,502.2,561z"/>
</svg>
