<?xml version="1.0" encoding="utf-8"?>
<!-- Generator: Adobe Illustrator 22.1.0, SVG Export Plug-In . SVG Version: 6.00 Build 0)  -->
<svg version="1.1" id="Layer_1" xmlns="http://www.w3.org/2000/svg" xmlns:xlink="http://www.w3.org/1999/xlink" x="0px" y="0px"
	 viewBox="0 0 612 612" style="enable-background:new 0 0 612 612;" xml:space="preserve">
<path d="M462.1,45.9C386.8-1.2,302.6,13.1,276.3,17.6c-15.3,2.6-61.9,11.8-112.4,43.9c-17.2,10.9-54.8,37.1-82.2,76
	C3.4,248.4,49.4,386.3,52.2,394.3c4.9,14,29.6,81.2,96.6,135c38.3,30.7,74.7,44.4,89.6,49.4c11.4,3.8,149.2,48.9,190.8-11.7
	c4.2-6.1,22.6-35.4,0.2-96c-9.4-41-14-93.8,14.9-131.6c36.7-48.2,94.8-29.2,120.2-69.9C598.4,214.9,546,98.4,462.1,45.9z
	 M69.2,296.4c0-19.2,15.6-34.8,34.8-34.8s34.8,15.6,34.8,34.8c0,19.2-15.6,34.8-34.8,34.8S69.2,315.6,69.2,296.4z M133.7,440.7
	c-19.2,0-34.8-15.6-34.8-34.8s15.6-34.8,34.8-34.8c19.2,0,34.8,15.6,34.8,34.8S152.9,440.7,133.7,440.7z M138.7,221.7
	c-19.2,0-34.8-15.6-34.8-34.8s15.6-34.8,34.8-34.8c19.2,0,34.8,15.6,34.8,34.8S158,221.7,138.7,221.7z M262.6,128.8
	c-19.2,0-34.8-15.6-34.8-34.8s15.6-34.8,34.8-34.8c19.2,0,34.8,15.6,34.8,34.8S281.8,128.8,262.6,128.8z M397.5,128.8
	c-19.2,0-34.8-15.6-34.8-34.8s15.6-34.8,34.8-34.8c19.2,0,34.8,15.6,34.8,34.8S416.7,128.8,397.5,128.8z"/>
</svg>
