<?xml version="1.0" encoding="utf-8"?>
<!-- Generator: Adobe Illustrator 22.1.0, SVG Export Plug-In . SVG Version: 6.00 Build 0)  -->
<svg version="1.1" id="Layer_1" xmlns="http://www.w3.org/2000/svg" xmlns:xlink="http://www.w3.org/1999/xlink" x="0px" y="0px"
	 viewBox="0 0 612 612" style="enable-background:new 0 0 612 612;" xml:space="preserve">
<style type="text/css">
	.st0{fill:#231F20;}
</style>
<path class="st0" d="M541.4,162.3c-37-28.4-97.8-35.4-144.3-22c-26.8,7.7-39.7,19.6-60.6,24.8c-1.1-15.5,0.4-66.7,61-112.7
	l-26.2-34.5C342.2,40,323.7,63.6,312,85.6c-29.5-39.1-82.9-88.2-153.5-62.5c0,0,20.9,76.8,139.4,98.8c-4.7,18.1-5.2,33.4-4.8,43.4
	c-20.8-4.8-34.9-16.3-60.2-24.3c-51.3-16.3-121-9.7-162.6,23.5C1.1,220,22.7,339.1,27.9,368.2c24.4,135,135.6,228.2,186,225.3
	c39.4-2.2,60.9-6.6,60.9-6.6c15.1-3,24.8-6.3,40.3-6.1c16.8,0.2,25.7,4.1,41,7.6c0,0,0,0,0,0c0,0,25.6,12.8,62.4,5
	c29.5-6.3,139.2-80.1,164-225.3C588.8,330.7,608.7,214.1,541.4,162.3z"/>
</svg>
