<?xml version="1.0" encoding="utf-8"?>
<!-- Generator: Adobe Illustrator 22.1.0, SVG Export Plug-In . SVG Version: 6.00 Build 0)  -->
<svg version="1.1" id="Layer_1" xmlns="http://www.w3.org/2000/svg" xmlns:xlink="http://www.w3.org/1999/xlink" x="0px" y="0px"
	 viewBox="0 0 612 612" style="enable-background:new 0 0 612 612;" xml:space="preserve">
<g>
	<path d="M305,27.6c-153.2,0-277.3,124.2-277.3,277.3S151.9,582.2,305,582.2s277.3-124.2,277.3-277.3S458.2,27.6,305,27.6z
		 M461.5,169.5c28.2,0,51.1,22.9,51.1,51.1c0,28.2-22.9,51.1-51.1,51.1c-28.2,0-51.1-22.9-51.1-51.1
		C410.4,192.4,433.3,169.5,461.5,169.5z M145.9,442.8c-28.2,0-51.1-22.9-51.1-51.1c0-28.2,22.9-51.1,51.1-51.1
		c28.2,0,51.1,22.9,51.1,51.1C197,419.9,174.1,442.8,145.9,442.8z M145.9,277.2c-28.2,0-51.1-22.9-51.1-51.1
		c0-28.2,22.9-51.1,51.1-51.1c28.2,0,51.1,22.9,51.1,51.1C197,254.3,174.1,277.2,145.9,277.2z M305,540.9
		c-28.2,0-51.1-22.9-51.1-51.1c0-28.2,22.9-51.1,51.1-51.1c28.2,0,51.1,22.9,51.1,51.1C356.2,518,333.3,540.9,305,540.9z
		 M274.3,304.9c0-17,13.8-30.8,30.8-30.8s30.8,13.8,30.8,30.8c0,17-13.8,30.8-30.8,30.8S274.3,321.9,274.3,304.9z M305,182.1
		c-28.2,0-51.1-22.9-51.1-51.1s22.9-51.1,51.1-51.1c28.2,0,51.1,22.9,51.1,51.1S333.3,182.1,305,182.1z M461.5,438.7
		c-28.2,0-51.1-22.9-51.1-51.1c0-28.2,22.9-51.1,51.1-51.1c28.2,0,51.1,22.9,51.1,51.1C512.7,415.8,489.8,438.7,461.5,438.7z"/>
</g>
</svg>
