<?xml version="1.0" encoding="utf-8"?>
<!-- Generator: Adobe Illustrator 22.1.0, SVG Export Plug-In . SVG Version: 6.00 Build 0)  -->
<svg version="1.1" id="Layer_1" xmlns="http://www.w3.org/2000/svg" xmlns:xlink="http://www.w3.org/1999/xlink" x="0px" y="0px"
	 viewBox="0 0 612 612" style="enable-background:new 0 0 612 612;" xml:space="preserve">
<style type="text/css">
	.st0{fill:#231F20;}
</style>
<path class="st0" d="M586.9,145.5c0-23.4-18.2-42.5-40.7-42.5h-31.2V52c0-22.9-18.7-41.6-41.6-41.6h-39.3
	c-22.9,0-41.6,18.7-41.6,41.6V103h-174V52c0-22.9-18.7-41.6-41.6-41.6h-39.7C114.4,10.4,95.7,29,95.7,52V103H64.8
	c-22.4,0-40.7,19.1-40.7,42.5v59.8c-0.1,1.4-0.2,2.7-0.2,4.1v346.2c0,24.6,20,44.6,44.6,44.6h471.5c20,0,37-13.2,42.6-31.4
	c2.7-5.7,4.2-12,4.2-18.8V145.5z M65.4,558.1c-0.5-0.7-0.9-1.5-0.9-2.5V303.9h479.6v251.8c0,0.9-0.3,1.8-0.9,2.5H65.4z M427,52
	c0-3.8,3.3-7.1,7.1-7.1h39.3c3.8,0,7.1,3.3,7.1,7.1V103h-0.3v47.4c0,0.4,0,0.8-0.1,1.2c-1,2.8-3.6,4.8-6.7,4.8h-39.3
	c-0.2,0-0.5,0-0.7-0.1c-2-0.7-3.5-1.6-4.6-2.4c-1.1-1.3-1.8-2.9-1.8-4.6V103V52z M130.2,52c0-3.8,3.3-7.1,7.1-7.1H177
	c3.8,0,7.1,3.3,7.1,7.1v68l-1,32c-1.2,1.2-2.4,2.2-3.7,3.1c-0.8,0.5-1.6,1-2.4,1.4h-39.6c-3.8,0-7.1-3.3-7.1-7.1V103V52z"/>
</svg>
