<?xml version="1.0" encoding="utf-8"?>
<!-- Generator: Adobe Illustrator 22.1.0, SVG Export Plug-In . SVG Version: 6.00 Build 0)  -->
<svg version="1.1" id="Layer_1" xmlns="http://www.w3.org/2000/svg" xmlns:xlink="http://www.w3.org/1999/xlink" x="0px" y="0px"
	 viewBox="0 0 612 612" style="enable-background:new 0 0 612 612;" xml:space="preserve">
<style type="text/css">
	.st0{fill:#231F20;}
</style>
<path class="st0" d="M539.5,24.7c-1.1,127.9-1.3,428.5-1.2,450.9c-2.4,9.1-8.6,27.2-24.9,43.8c-2.9,3-16.8,16.7-40,24.6
	c-10.7,3.7-24,8.3-41,5.4c-5.9-1-27.9-4.8-39.5-22.5c-14.8-22.5-4.6-54.7,10.3-72.5c16.6-19.9,40.9-24.4,59.8-27.8
	c16.1-3,29.9-2.6,39.5-1.7c-0.1-93.6-0.2-187.3-0.3-280.9c-90.7,30-181.4,60-272.1,90c0,70.6,0.2,266.1,0.3,293.2
	c-6.2,10.6-16.8,25.3-34.2,37.4c-6.6,4.6-17.7,12.2-34.4,16c-6.7,1.5-21.9,4.9-40.3,0c-9.4-2.5-25.9-6.8-35.3-20.6
	c-15-22.1-4.3-54.5,11-72.4c17.1-20,41.8-23.9,55.9-26.1c16.7-2.6,30.8-1.1,40.1,0.7c0-107,0-214,0-321.1
	C308.6,102.5,424.1,63.6,539.5,24.7z"/>
</svg>
