<?xml version="1.0" encoding="utf-8"?>
<!-- Generator: Adobe Illustrator 22.1.0, SVG Export Plug-In . SVG Version: 6.00 Build 0)  -->
<svg version="1.1" id="Layer_1" xmlns="http://www.w3.org/2000/svg" xmlns:xlink="http://www.w3.org/1999/xlink" x="0px" y="0px"
	 viewBox="0 0 612 612" style="enable-background:new 0 0 612 612;" xml:space="preserve">
<style type="text/css">
	.st0{fill:#231F20;}
</style>
<g>
	<path class="st0" d="M546.2,272.4c-0.7-26.9-3.4-51.7-8.1-86.6c-7-52.2-20.4-151.7-46.3-155.1c-9.3-1.2-15,3.7-15,3.7
		c-6.3,5.4-6,14.8-5.8,17.8c-3.2,0.2-7.7,1.1-11.1,4.3c-5.9,5.7-4.8,15.2-4.2,21.1c1.9,18.6,2.5,37.3,4.1,55.9
		c0.8,9.2,1.9,22.7,1.4,39.9c-0.5,15.1-2,27.5-3.4,36.1c-0.7,0.8-1.3,1.5-2,2.3c2.8,0.2,5.8,0.8,8.8,1.8
		c15.5,5.6,25.3,22.6,23.3,40.5l-0.2,1.9L402.8,363l-10.7-8.5l82.3-103.8c0.5-10.9-5.4-21-14.5-24.2c-9.7-3.5-18.9,2.3-20.3,3.3
		c-17.9,19.5-33.3,35-44.9,46.2c-15.8,15.3-25.5,23.9-38.2,40.2c-12.2,15.8-25.1,32.6-32.7,55.9c-10,30.7-6.3,59.2,0,108.4
		c2.2,17.4,4.3,26.5,4.7,44.9c0.5,23.4-2.2,42.6-4.6,55.6c44.9-0.1,89.8-0.2,134.8-0.4c-2.4-19.5-3.2-47,4.1-78.4
		c6.9-29.4,18.4-51.5,23.5-60.6c16.1-28.7,27.4-34.5,43.7-67.9c5.6-11.5,10.3-21.3,13.9-35.5C549.6,316.1,546.9,298.9,546.2,272.4z"
		/>
	<path class="st0" d="M253.7,316.3c-12.6-16.4-22.3-24.9-38.2-40.2c-11.6-11.2-27-26.7-44.9-46.2c-1.4-1-10.6-6.8-20.3-3.3
		c-9.1,3.3-15,13.3-14.5,24.2l82.3,103.8l-10.7,8.5l-84.8-106.9l-0.2-1.9c-2-17.9,7.7-34.9,23.3-40.5c3-1.1,5.9-1.6,8.8-1.8
		c-0.7-0.8-1.3-1.5-2-2.3c-1.4-8.6-2.9-21-3.4-36.1c-0.5-17.1,0.6-30.7,1.4-39.9c1.6-18.6,2.2-37.3,4.1-55.9
		c0.6-5.9,1.6-15.4-4.2-21.1c-3.4-3.3-7.9-4.1-11.1-4.3c0.2-3,0.4-12.4-5.8-17.8c0,0-5.7-5-15-3.7c-26,3.4-39.3,102.9-46.3,155.1
		c-4.7,34.9-7.4,59.7-8.1,86.6c-0.7,26.5-3.4,43.7,2.2,65.9c3.6,14.1,8.3,24,13.9,35.5c16.3,33.5,27.7,39.2,43.7,67.9
		c5.1,9.1,16.7,31.3,23.5,60.6c7.3,31.4,6.5,58.8,4.1,78.4c44.9,0.1,89.8,0.2,134.8,0.4c-2.4-12.9-5.1-32.2-4.6-55.6
		c0.4-18.3,2.5-27.5,4.7-44.9c6.4-49.2,10-77.7,0-108.4C278.8,348.8,265.9,332.1,253.7,316.3z"/>
</g>
</svg>
