<?xml version="1.0" encoding="utf-8"?>
<!-- Generator: Adobe Illustrator 22.1.0, SVG Export Plug-In . SVG Version: 6.00 Build 0)  -->
<svg version="1.1" id="Layer_1" xmlns="http://www.w3.org/2000/svg" xmlns:xlink="http://www.w3.org/1999/xlink" x="0px" y="0px"
	 viewBox="0 0 612 612" style="enable-background:new 0 0 612 612;" xml:space="preserve">
<style type="text/css">
	.st0{fill:#231F20;}
</style>
<g>
	<path class="st0" d="M295.9,314.1h-48.6c0,0.4,0,0.8,0,1.2c0,85.9-36.9,163.3-95.8,217.2c41.4,28,91,45,144.3,46.8V314.1z"/>
	<path class="st0" d="M228.6,315.3c0-0.4,0-0.8,0-1.2H30.7c2.8,84.1,43.4,158.6,105.4,207.1C192.8,470.7,228.6,397.1,228.6,315.3z"
		/>
	<path class="st0" d="M30.7,295.4h197.1c-5.7-79.6-45.3-149.9-104.4-196.6C68.7,147.2,33.3,217.2,30.7,295.4z"/>
	<path class="st0" d="M459.4,532.2c-58.6-53.9-95.5-131.2-95.5-216.9c0-0.4,0-0.8,0-1.2h-49.3v265.2
		C368.2,577.5,417.8,560.4,459.4,532.2z"/>
	<path class="st0" d="M246.6,295.4h49.3V30.2c-59.2,2-113.7,22.7-157.6,56.4C199.9,136.8,241,211.3,246.6,295.4z"/>
	<path class="st0" d="M383.4,295.4h196.5c-2.6-78.1-37.8-147.9-92.4-196.3C428.5,145.8,389,216,383.4,295.4z"/>
	<path class="st0" d="M314.6,295.4h49.9c5.6-83.9,46.6-158.4,108-208.5c-44-33.9-98.6-54.7-158-56.7V295.4z"/>
	<path class="st0" d="M579.8,314.1H382.6c0,0.4,0,0.8,0,1.2c0,81.6,35.6,155.1,92.2,205.6C536.6,472.5,577,398.1,579.8,314.1z"/>
	<path class="st0" d="M305.2,579.5C305.2,579.5,305.2,579.5,305.2,579.5C305.3,579.5,305.3,579.5,305.2,579.5L305.2,579.5z"/>
	<path class="st0" d="M580,304.8C580,304.8,580,304.8,580,304.8c0-0.1,0-0.1,0-0.1V304.8z"/>
</g>
</svg>
