<?xml version="1.0" encoding="utf-8"?>
<!-- Generator: Adobe Illustrator 22.1.0, SVG Export Plug-In . SVG Version: 6.00 Build 0)  -->
<svg version="1.1" id="Layer_1" xmlns="http://www.w3.org/2000/svg" xmlns:xlink="http://www.w3.org/1999/xlink" x="0px" y="0px"
	 viewBox="0 0 612 612" style="enable-background:new 0 0 612 612;" xml:space="preserve">
<style type="text/css">
	.st0{fill:#231F20;}
</style>
<path class="st0" d="M539.7,131.6c-7.2-86-24.9-95.2-30-97.4c-19.8-8.3-47.6,8.4-86.9,32c-24.4,14.6-30.5,22.3-53.1,32.9
	c-24,11.2-45.8,15.9-60.8,18.1c-7.8,0.5-19.5,0.8-33.6-0.7c-7.6-0.8-38.8-4.7-89.8-30.4c-35.2-17.7-50.7-31.3-78.9-32.7
	C96.3,52.9,87.5,54.6,80,60c-16.6,12-16.4,35.6-16.3,39.6c-0.2,28.2,0.9,66.7,6.3,112.2c4.7,39.1,10.4,85.6,29.4,142.5
	c13.3,39.7,32.1,94.3,77.8,148.7c17,20.2,33.6,39.5,62.7,54.8c14.5,7.6,55.6,26.5,102.8,19.3c76.1-11.7,118.2-83.9,141.6-124.1
	c29.5-50.6,37.5-94.5,48.7-155.5C535.3,284.9,547,218.5,539.7,131.6z M168.1,246.5c-1.1-3.7-8.5-30.4,7.1-48.4
	c5.9-6.7,13.2-9.7,15.4-10.7c12.5-5.1,23.7-2.9,35.8-0.4c14.6,3,25.3,8.3,35.6,13.4c8.3,4.1,14.9,8.1,19.6,11.1
	c-18.1,6.9-37.6,13.6-58.3,19.9C204.2,237.2,185.7,242.2,168.1,246.5z M409.8,427.2c-29.3,30.6-65.1,36.1-75.8,37.4
	c-12.1,0.7-47.3,1.1-81.3-22.2c0,0-36.2-24.8-50.4-70.1c-5.6-17.9-3.9-29.2-1.2-36.8c1.8-5.1,3.9-11,9.2-14.4
	c11.5-7.4,28.2,2.9,47.2,10.2c14.2,5.4,35.3,11.2,63.8,11.5c0,0,19.7,2.9,66.2-24c46.5-26.9,52.4-4.4,52.4-4.4
	c1.8,6.6,4,16.5,4.1,28.6C444.7,389.8,414.8,421.9,409.8,427.2z M457.9,227.9c-16.4-1.4-117.1-23.6-117.1-23.6
	c12.6-11.4,24.3-18.4,32.6-22.6c4.1-2.1,8.9-4.5,15.8-6.8c12.5-4.1,23.8-5.3,37.1-4.1C461.6,173.9,457.9,227.9,457.9,227.9z"/>
</svg>
